<?xml version="1.0" encoding="UTF-8" standalone="no"?>
<!-- Created with Inkscape (http://www.inkscape.org/) -->

<svg
   width="210mm"
   height="297mm"
   viewBox="0 0 210 297"
   version="1.1"
   id="svg5"
   inkscape:version="1.1.2 (0a00cf5339, 2022-02-04)"
   sodipodi:docname="logo.svg"
   xmlns:inkscape="http://www.inkscape.org/namespaces/inkscape"
   xmlns:sodipodi="http://sodipodi.sourceforge.net/DTD/sodipodi-0.dtd"
   xmlns="http://www.w3.org/2000/svg"
   xmlns:svg="http://www.w3.org/2000/svg">
  <sodipodi:namedview
     id="namedview7"
     pagecolor="#ffffff"
     bordercolor="#666666"
     borderopacity="1.0"
     inkscape:pageshadow="2"
     inkscape:pageopacity="0.0"
     inkscape:pagecheckerboard="0"
     inkscape:document-units="mm"
     showgrid="false"
     showguides="true"
     inkscape:guide-bbox="true"
     inkscape:zoom="0.72693603"
     inkscape:cx="665.80824"
     inkscape:cy="623.85132"
     inkscape:window-width="2560"
     inkscape:window-height="962"
     inkscape:window-x="1920"
     inkscape:window-y="435"
     inkscape:window-maximized="1"
     inkscape:current-layer="layer1" />
  <defs
     id="defs2" />
  <g
     inkscape:label="Layer 1"
     inkscape:groupmode="layer"
     id="layer1">
    <path
       style="fill:#000000;stroke-width:0.295244"
       d="m 127.02037,141.77209 c -2.2868,-0.23373 -5.43913,-0.7882 -7.00518,-1.23217 -4.72377,-1.33913 -8.14291,-1.12801 -6.90312,0.42623 0.25558,0.32041 0.46486,0.64217 0.46505,0.71502 1.6e-4,0.0729 -3.14934,0.0357 -6.999,-0.0825 -3.84965,-0.11821 -10.803768,-0.0748 -15.453617,0.0964 -9.533735,0.35105 -17.06224,0.20572 -18.710187,-0.36119 -0.875472,-0.30115 -1.586386,-0.29732 -3.378929,0.0183 -2.867775,0.50493 -6.019384,0.22863 -7.71672,-0.67654 -1.23632,-0.65932 -1.491867,-0.67199 -10.7465,-0.53201 l -9.48009,0.14337 -0.10833,-40.876978 -0.10833,-40.876964 13.694442,0.22065 c 9.614218,0.154894 15.592763,0.105171 20.065845,-0.166894 8.509408,-0.517577 15.015759,-0.519585 17.722314,-0.0055 1.807305,0.343281 3.298858,0.349139 8.292712,0.03256 9.48495,-0.601338 14.58931,-0.165665 18.97952,1.619995 1.27237,0.517511 2.26355,0.601904 7.06831,0.601754 4.91672,-1.33e-4 5.76365,-0.07573 7.04658,-0.628955 0.80203,-0.34582 1.98701,-0.630947 2.6333,-0.633619 0.64629,-0.0025 1.32468,-0.112706 1.50758,-0.244598 0.18287,-0.131892 1.49258,-0.142348 2.91046,-0.02325 2.43333,0.204402 4.92065,0.961332 6.63999,2.0207 1.03428,0.637236 3.20413,0.551682 4.63039,-0.182545 1.62753,-0.837854 4.35021,-0.85538 5.14915,-0.03314 0.31475,0.323913 0.944,0.723937 1.3984,0.888955 l 0.82612,0.300047 -1.15354,0.948055 c -0.63448,0.521411 -1.83563,1.191426 -2.66928,1.488917 -1.10385,0.393916 -1.55873,0.727422 -1.67397,1.22729 -0.26516,1.150498 0.46009,1.610037 2.7479,1.741116 l 2.08153,0.119262 -0.64441,0.672753 c -0.35441,0.370051 -1.17627,1.06979 -1.82634,1.555036 -2.08087,1.553145 -1.2163,2.852995 2.16423,3.253848 1.90217,0.225563 1.88867,0.454311 -0.0619,1.049559 -0.72807,0.222193 -1.3977,0.539667 -1.48802,0.705498 -0.23447,0.430379 0.59877,1.283785 1.64268,1.682464 0.77474,0.295848 0.90373,0.502474 0.98172,1.572364 0.0494,0.677483 0.29752,1.492634 0.55146,1.811501 0.3194,0.40102 0.46799,1.176472 0.48205,2.515804 0.011,1.064845 0.12243,2.262577 0.24725,2.661605 0.19204,0.613985 0.0141,0.958145 -1.15704,2.238926 -1.35213,1.478626 -1.43421,1.518541 -3.57061,1.736054 -1.20266,0.122465 -2.99741,0.439955 -3.98835,0.705581 -1.53416,0.411226 -1.96145,0.687789 -2.87721,1.862485 -0.98208,1.259737 -1.02262,1.379563 -0.46688,1.379563 0.33477,0 0.87752,0.163259 1.20618,0.362815 0.87608,0.531916 2.30591,0.375992 3.49299,-0.380938 0.91476,-0.583299 1.18429,-0.621421 2.19979,-0.311184 1.80735,0.552131 1.55097,0.955275 -0.90872,1.428755 -1.27588,0.245627 -3.20054,1.290306 -3.20054,1.737232 0,0.16945 0.0935,0.308893 0.20789,0.309922 1.36499,0.01195 3.56272,0.73977 4.38657,1.452703 0.90391,0.78219 0.97635,0.959025 0.81208,1.982096 -0.27381,1.70474 -0.73645,2.05293 -2.80747,2.11278 -1.54779,0.0447 -1.93481,0.17536 -2.57213,0.86809 -0.64376,0.69972 -0.99596,0.81548 -2.48127,0.81548 -1.03089,0 -2.07144,0.19969 -2.57262,0.49375 -0.4629,0.27156 -1.70725,0.59868 -2.76531,0.72695 -1.94115,0.23531 -2.99754,0.88406 -2.60698,1.60101 0.13785,0.25303 0.73105,0.30169 1.91871,0.1574 1.27042,-0.15436 1.98901,-0.0809 2.75315,0.28126 0.79769,0.37815 1.18615,0.4115 1.69986,0.14594 0.91645,-0.47375 1.53281,-0.12843 1.53281,0.85876 0,0.8122 0.0237,0.82226 1.45522,0.62144 l 1.45528,-0.20412 -0.69298,0.64441 c -0.38112,0.35443 -1.14619,0.7878 -1.70014,0.96307 -3.18649,1.00815 -0.96904,2.54639 5.00616,3.47279 l 2.46303,0.38188 0.49607,1.24802 0.49605,1.24804 -0.67801,0.58421 c -0.50102,0.43169 -1.25685,0.60862 -2.8955,0.67775 l -2.21752,0.0935 1.55228,0.83905 c 0.85377,0.46148 2.1011,1.00488 2.77189,1.20759 1.42436,0.43043 2.01401,0.95629 2.46867,2.20163 0.27598,0.75592 0.23506,1.21265 -0.25187,2.8088 -0.31978,1.04836 -0.5814,2.09877 -0.5814,2.33419 0,0.23544 -0.2495,0.78785 -0.55439,1.22764 -0.74488,1.07437 -0.69821,1.93628 0.13861,2.55833 1.00238,0.74513 0.86196,1.031 -0.62369,1.26987 -0.72417,0.11644 -2.03388,0.43418 -2.91049,0.7061 -1.35121,0.41913 -1.59382,0.60434 -1.59382,1.2167 0,1.2222 0.76636,1.80076 2.15075,1.62375 0.67033,-0.0857 1.45471,-0.0859 1.74306,0 0.48612,0.1442 0.49412,0.22173 0.10983,1.06481 -0.23816,0.52254 -0.64022,0.90925 -0.94531,0.90925 -0.292,0 -0.60801,0.14152 -0.70225,0.31447 -0.0942,0.17297 -1.20485,0.31449 -2.46805,0.31449 -2.60815,0 -3.1474,0.36555 -3.13125,2.12271 0.005,0.56214 -0.0657,1.10717 -0.15737,1.21121 -0.22357,0.25365 -10.2813,0.7321 -14.61664,0.69534 -1.90567,-0.0161 -5.33588,-0.22061 -7.62267,-0.45434 z"
       id="path35517" />
    <g
       id="g36533"
       style="fill:#d40000"
       transform="matrix(0.1467033,0,0,0.17787623,148.54402,-111.36755)">
      <path
         id="path34371"
         style="fill:#d40000;stroke-width:0.224535"
         d="m -313.78068,1083.2487 c -2.03016,3.3518 -2.34522,5.7605 -1.03931,7.9459 0.68959,1.154 0.7509,1.2027 3.33058,2.6468 2.14359,1.1999 2.89199,1.5235 4.05967,1.7552 3.00851,0.5971 5.18177,-0.1387 6.89771,-2.3353 1.3087,-1.6753 1.29212,-2.7595 -0.0712,-4.6653 -0.54143,-0.7568 -0.90674,-1.481 -0.81182,-1.6092 0.41917,-0.5666 5.43304,-1.0134 7.5912,-0.6766 3.03464,0.4737 7.58978,2.231 11.42188,4.4064 3.56753,2.0252 4.87338,3.3115 5.92243,5.8338 0.30969,0.7446 0.71373,1.4393 0.89787,1.5438 0.19015,0.108 0.6981,-0.01 1.17569,-0.2716 4.43223,-2.4336 5.22734,-2.782 7.16096,-3.1379 1.1793,-0.217 2.89866,-0.3073 4.17998,-0.2194 1.19716,0.082 3.40018,0.2343 4.89561,0.3382 5.03176,0.3498 10.6753,-0.346 14.61511,-1.8019 8.29761,-3.0664 12.86876,-10.6659 9.47418,-15.7507 -2.40674,-3.6052 -8.60952,-5.9649 -12.58523,-4.7879 -3.52718,1.0442 -6.1355,4.3616 -5.39418,6.8607 0.16394,0.5527 0.70064,1.4726 1.19265,2.044 1.05642,1.227 1.09524,1.7735 0.15896,2.2342 -2.15343,1.0597 -9.62724,0.9195 -17.79519,-0.3339 -4.68724,-0.7192 -7.37813,-1.374 -16.47414,-4.0087 -11.71971,-3.3947 -13.16819,-3.716 -16.21145,-3.5966 -5.52012,0.2166 -9.62696,2.6907 -12.59197,7.586 z m 48.64442,-40.6682 c -0.77146,2.0486 -0.91672,3.6812 -0.4996,5.6148 0.34526,1.6005 1.57778,3.8526 2.34764,4.2896 0.57094,0.3241 1.13557,0.3671 1.3322,0.1013 0.10057,-0.136 0.0376,-0.9953 -0.13972,-1.9097 -0.48935,-2.5217 -0.39272,-2.9735 1.05439,-4.9295 1.70398,-2.3031 3.38096,-3.3395 4.4353,-2.741 0.11654,0.066 0.0526,1.199 -0.14178,2.5173 -0.53149,3.6023 0.29011,5.5351 3.24069,7.6235 5.16605,3.6565 11.85977,2.6209 14.68595,-2.2721 2.64293,-4.5757 1.76251,-8.5835 -2.67533,-12.1787 -3.05649,-2.476 -5.74403,-3.605 -9.51329,-3.9962 -6.43455,-0.6679 -12.09678,2.4909 -14.12646,7.8807 z m -10.64374,26.2273 c -3.24557,4.8683 -4.46044,6.9051 -4.45719,7.473 0.006,0.9072 0.91057,1.7464 2.97716,2.7597 2.50619,1.2287 5.59212,1.9096 9.61048,2.1205 3.98469,0.209 6.34759,-0.056 7.45715,-0.8375 1.14397,-0.8053 1.74423,-2.0335 1.43908,-2.9444 -0.21803,-0.6509 -0.3865,-0.7966 -1.48986,-1.2886 -1.4488,-0.6461 -3.77203,-0.9964 -6.62113,-0.9985 -1.11166,-8e-4 -1.97213,-0.068 -1.9122,-0.1487 0.0599,-0.081 1.07593,-0.3675 2.25775,-0.6366 2.53872,-0.5782 4.87474,-0.6217 7.03381,-0.1312 2.7315,0.6205 4.15872,-0.029 6.24137,-2.8414 1.49878,-2.0243 1.67837,-2.9464 0.74272,-3.8198 -1.08269,-1.0106 -5.55783,-1.9874 -8.78266,-1.917 -0.71548,0.016 -1.31445,-0.027 -1.33103,-0.095 -0.0166,-0.068 0.51426,-0.3496 1.1798,-0.6254 1.6541,-0.6857 3.6997,-0.7674 6.09538,-0.2433 4.73972,1.0369 5.86718,0.7472 7.97881,-2.0503 1.9004,-2.5177 1.79419,-3.5436 -0.50178,-4.847 -1.87283,-1.0631 -6.67748,-2.5108 -9.45964,-2.8502 -1.71113,-0.2087 -2.71156,-0.1683 -4.59781,0.1859 -2.90535,0.5454 -3.59301,0.8682 -5.07697,2.3834 -1.22373,1.2494 -7.18132,8.9499 -8.78324,11.3527 z m -11.83489,26.8378 c -5.36864,15.8736 -10.57538,34.3221 -13.06653,46.2973 -6.39737,30.7529 -8.28488,54.8638 -6.19403,79.1222 2.39349,27.7699 8.15834,50.8418 17.40198,69.6456 4.40732,8.9655 11.38914,19.6911 16.23215,24.936 2.87902,3.1179 4.90368,4.6639 9.63006,7.3533 3.1078,1.768 3.83953,2.1175 4.40129,2.0997 l 0.67382,-0.022 -0.18413,-0.8444 c -0.10128,-0.4644 -0.67691,-1.6818 -1.27917,-2.7053 -1.86556,-3.1703 -4.70842,-9.7259 -8.11409,-18.7109 -7.52581,-19.855 -11.174,-32.7769 -13.984,-49.5314 -3.05832,-18.2351 -4.32576,-39.7349 -3.36883,-57.1455 0.85608,-15.5757 3.67532,-33.9279 8.6086,-56.0391 3.10782,-13.9295 7.40709,-28.8482 11.55992,-40.1138 0.51431,-1.3952 0.8357,-2.5928 0.71416,-2.6612 -0.48841,-0.2754 -2.10032,-0.1433 -3.35778,0.2748 -1.71124,0.5691 -4.67439,2.3316 -5.84724,3.478 -1.69789,1.6596 -2.87684,4.4904 -5.14405,12.3517 -0.80754,2.8 -2.30637,7.8831 -3.33072,11.2957 -7.27032,24.2215 -10.47859,40.9561 -11.2139,58.4928 -0.75068,17.9034 -0.1524,31.3885 2.02057,45.5445 0.6838,4.4545 0.64441,4.9092 -0.30137,3.4801 -1.31354,-1.9849 -2.95739,-8.605 -3.66089,-14.7432 -1.57521,-13.7436 -0.99827,-31.3378 1.73158,-52.8065 1.92748,-15.1585 3.40603,-22.1873 7.90565,-37.5826 4.51043,-15.4322 6.63608,-23.2569 6.9082,-25.4292 0.2969,-2.3703 -0.20315,-3.9694 -1.74345,-5.5752 -0.9329,-0.9725 -4.40019,-3.2347 -5.29822,-3.4568 l -0.63378,-0.1566 z" />
      <path
         id="path34371-3"
         style="fill:#d40000;stroke-width:0.224535"
         d="m -107.45124,1245.5292 c -3.35183,-2.0302 -5.76048,-2.3453 -7.9459,-1.0394 -1.15404,0.6896 -1.20276,0.7509 -2.6468,3.3306 -1.19992,2.1436 -1.52349,2.892 -1.75523,4.0597 -0.59711,3.0085 0.13869,5.1818 2.33534,6.8977 1.67528,1.3087 2.75952,1.2921 4.66526,-0.071 0.7568,-0.5414 1.48097,-0.9067 1.60926,-0.8118 0.56655,0.4192 1.01339,5.433 0.67652,7.5912 -0.47367,3.0346 -2.23098,7.5898 -4.40638,11.4219 -2.02522,3.5675 -3.31152,4.8733 -5.83377,5.9224 -0.74459,0.3097 -1.43932,0.7137 -1.54385,0.8979 -0.10793,0.1901 0.01,0.6981 0.27165,1.1757 2.4336,4.4322 2.782,5.2273 3.13788,7.1609 0.21703,1.1793 0.3073,2.8987 0.21944,4.18 -0.0821,1.1972 -0.23431,3.4002 -0.33827,4.8956 -0.34978,5.0318 0.34604,10.6753 1.80198,14.6151 3.06635,8.2976 10.66582,12.8688 15.75066,9.4742 3.605152,-2.4067 5.964942,-8.6095 4.787922,-12.5852 -1.04422,-3.5272 -4.361662,-6.1355 -6.860732,-5.3942 -0.55274,0.1639 -1.47255,0.7006 -2.04403,1.1926 -1.22697,1.0565 -1.77341,1.0953 -2.23417,0.159 -1.05973,-2.1534 -0.91949,-9.6272 0.3339,-17.7952 0.71926,-4.6872 1.37406,-7.3781 4.00875,-16.4741 3.39466,-11.7197 3.716002,-13.1682 3.596602,-16.2115 -0.216622,-5.5201 -2.690762,-9.6269 -7.586032,-12.592 z m 40.668192,48.6444 c -2.0486,-0.7715 -3.68118,-0.9167 -5.61484,-0.4996 -1.6005,0.3452 -3.85256,1.5778 -4.28959,2.3476 -0.32411,0.571 -0.36703,1.1356 -0.10125,1.3322 0.13597,0.1006 0.99533,0.038 1.90971,-0.1397 2.52171,-0.4894 2.9735,-0.3927 4.92946,1.0544 2.30315,1.704 3.3395,3.3809 2.74098,4.4353 -0.0661,0.1165 -1.19892,0.053 -2.51724,-0.1418 -3.60236,-0.5315 -5.53515,0.2901 -7.62353,3.2407 -3.6565,5.166 -2.6209,11.8598 2.27209,14.6859 4.57572,2.643 8.58352,1.7626 12.17868,-2.6753 2.47606,-3.0565 3.60503,-5.744 3.99625,-9.5133 0.66784,-6.4345 -2.49094,-12.0968 -7.88071,-14.1264 z m -26.2273,-10.6438 c -4.86826,-3.2455 -6.9051,-4.4604 -7.472962,-4.4572 -0.90723,0.01 -1.74647,0.9106 -2.75971,2.9772 -1.22877,2.5062 -1.90967,5.5921 -2.1205,9.6105 -0.20906,3.9847 0.0563,6.3476 0.83744,7.4571 0.80537,1.144 2.0335,1.7443 2.9444,1.4391 0.65091,-0.218 0.79662,-0.3865 1.28864,-1.4898 0.646052,-1.4488 0.996382,-3.7721 0.998452,-6.6212 8.1e-4,-1.1116 0.0678,-1.9721 0.14876,-1.9122 0.081,0.06 0.36749,1.076 0.63662,2.2578 0.57812,2.5387 0.62168,4.8747 0.13117,7.0338 -0.62056,2.7315 0.0292,4.1587 2.84139,6.2414 2.02432,1.4987 2.94641,1.6783 3.81977,0.7427 1.01068,-1.0827 1.98747,-5.5579 1.91702,-8.7827 -0.0156,-0.7155 0.0273,-1.3144 0.0953,-1.331 0.0681,-0.017 0.34954,0.5142 0.62537,1.1798 0.68574,1.6541 0.7674,3.6997 0.24329,6.0954 -1.03687,4.7397 -0.74716,5.8671 2.05033,7.9788 2.51766,1.9004 3.54359,1.7942 4.84697,-0.5018 1.06317,-1.8728 2.51081,-6.6775 2.85018,-9.4596 0.20876,-1.7112 0.16831,-2.7116 -0.18581,-4.5979 -0.54544,-2.9053 -0.86827,-3.593 -2.38345,-5.0769 -1.24945,-1.2238 -8.94992,-7.1813 -11.35269,-8.7833 z m -26.837772,-11.8349 c -15.87364,-5.3686 -34.32215,-10.5753 -46.29735,-13.0665 -30.75291,-6.3974 -54.86373,-8.2849 -79.12218,-6.194 -27.76987,2.3935 -50.84177,8.1583 -69.64559,17.402 -8.96552,4.4073 -19.69107,11.3891 -24.93603,16.2321 -3.11791,2.879 -4.66392,4.9037 -7.35329,9.6301 -1.76802,3.1078 -2.11744,3.8395 -2.09972,4.4013 l 0.0215,0.6738 0.84442,-0.1841 c 0.46444,-0.1013 1.68182,-0.677 2.70531,-1.2792 3.17034,-1.8656 9.72593,-4.7084 18.71088,-8.1141 19.85507,-7.5258 32.77696,-11.174 49.53138,-13.984 18.23518,-3.0583 39.73491,-4.3258 57.14556,-3.3688 15.57565,0.856 33.92791,3.6753 56.03913,8.6086 13.92943,3.1078 28.8482,7.4071 40.1137,11.5599 1.39524,0.5143 2.59281,0.8357 2.66129,0.7141 0.27537,-0.4884 0.14331,-2.1003 -0.27486,-3.3577 -0.56905,-1.7113 -2.33155,-4.6744 -3.47795,-5.8473 -1.65962,-1.6979 -4.49046,-2.8768 -12.35169,-5.144 -2.8,-0.8076 -7.88312,-2.3064 -11.29579,-3.3307 -24.22146,-7.2704 -40.95603,-10.4786 -58.49273,-11.2139 -17.90338,-0.7507 -31.38854,-0.1524 -45.54447,2.0205 -4.4545,0.6838 -4.90927,0.6444 -3.48012,-0.3013 1.98486,-1.3136 8.60494,-2.9574 14.74315,-3.6609 13.74367,-1.5752 31.33778,-0.9983 52.80653,1.7315 15.15849,1.9275 22.18734,3.4061 37.58259,7.9057 15.43225,4.5104 23.25687,6.6361 25.42919,6.9082 2.37033,0.2969 3.96939,-0.2032 5.57521,-1.7435 0.97254,-0.9329 3.23475,-4.4001 3.45675,-5.2982 l 0.15667,-0.6338 z" />
      <path
         style="fill:#d40000;stroke-width:1.2485"
         d="m -584.13591,1314.8835 c 0.57764,-2.6558 0.35954,-3.0643 -2.41724,-4.5298 -3.44772,-1.8188 -2.77831,-2.9082 1.49507,-2.4334 4.07126,0.4525 5.45049,-0.8138 4.26208,-3.9131 -0.85812,-2.2376 0.039,-3.885 5.40172,-9.9194 3.53683,-3.9797 14.89018,-17.4091 25.22962,-29.8432 10.33932,-12.4337 23.9176,-28.6325 30.17382,-35.9971 6.25623,-7.3644 15.87439,-18.8382 21.37353,-25.497 13.35273,-16.1688 37.72314,-42.6329 67.36877,-73.1567 39.57847,-40.7509 46.3521,-47.9708 47.01025,-50.1079 0.8536,-2.772 -1.6625,-7.0092 -5.83531,-9.8272 -1.90674,-1.2877 -3.38619,-2.7115 -3.28774,-3.1641 0.41858,-1.9247 5.68234,0.9027 8.48722,4.5589 4.19327,5.4656 7.01693,6.4719 10.85157,3.8678 5.00844,-3.401 6.08204,-10.6038 2.54193,-17.0566 -2.08769,-3.8055 -3.55345,-5.1925 -5.6985,-5.3918 -2.60186,-0.242 -2.92413,0.1033 -3.25407,3.4912 -0.48065,4.9337 -1.04532,3.7668 -1.8912,-3.9077 -0.37936,-3.4413 -1.75574,-8.2253 -3.05878,-10.631 l -2.36947,-4.3738 -3.73063,3.543 c -7.34723,6.9773 -11.33826,18.2116 -10.59801,29.8327 0.44732,7.0212 -4.47777,16.2881 -17.89795,33.6762 -14.8376,19.2246 -36.71799,45.2492 -37.79906,44.9582 -0.9922,-0.2672 -0.49522,-0.9028 11.4234,-14.6581 16.24743,-18.7491 36.90842,-46.291 40.04349,-53.3794 1.81788,-4.1103 2.56702,-7.8737 1.98261,-9.9603 -0.51663,-1.8444 -1.19815,-3.4042 -1.5144,-3.4662 -1.27698,-0.25 -20.05897,21.9542 -23.82666,28.1681 -2.22218,3.665 -5.0505,10.8006 -6.28519,15.8573 -2.19228,8.9781 -2.55343,9.5505 -15.39037,24.3901 -7.22993,8.3582 -20.2086,22.796 -28.84147,32.0845 -8.63297,9.2883 -16.43738,17.8119 -17.3432,18.9411 -0.90582,1.1294 -1.55452,1.5555 -1.44153,0.9466 0.29021,-1.5631 14.58343,-18.5179 36.73996,-43.5811 19.43646,-21.9862 25.50566,-29.7914 24.53759,-31.5561 -1.05917,-1.9306 -7.43728,3.7164 -15.97997,14.1484 -61.85756,75.5384 -85.08925,102.4821 -101.17323,117.3388 -11.90741,10.9988 -38.18919,29.7692 -50.71467,36.2201 l -7.46122,3.8427 2.93742,1.5435 c 4.61326,2.424 10.31371,0.5098 18.9348,-6.3579 4.18011,-3.3302 8.18255,-6.8405 8.89435,-7.801 1.12888,-1.5233 1.21515,-1.3297 0.67531,1.5187 -0.43898,2.3166 -2.42892,4.6771 -6.8539,8.1297 -7.86876,6.1393 -15.95374,8.3505 -26.36556,7.2106 -4.2505,-0.4654 -8.90079,-0.4453 -10.33393,0.044 -3.99669,1.3662 -9.22041,7.7234 -8.38625,10.2057 1.57871,4.6986 19.64571,15.5319 22.57974,13.5395 0.40887,-0.2775 -1.64415,-4.1985 -4.56239,-8.713 -3.92242,-6.0678 -4.88649,-8.2053 -3.69724,-8.1979 0.88481,0 2.49667,1.6223 3.58204,3.5931 1.08228,1.9727 3.52354,5.1958 5.418,7.167 2.75447,2.866 3.5356,4.546 3.89902,8.3853 0.62069,6.5557 1.81243,8.3173 6.47615,9.5727 3.26728,0.8796 4.99921,0.3922 9.52415,-2.6806 3.74062,-2.5401 5.73596,-4.7004 6.16539,-6.6747 z"
         id="path35537" />
      <path
         style="fill:#d40000;stroke-width:1.2485"
         d="m -418.43971,1315.7767 c -0.5776,-2.6558 -0.35957,-3.0643 2.41722,-4.5298 3.44773,-1.8187 2.77828,-2.9083 -1.49512,-2.4333 -4.07126,0.4525 -5.45043,-0.8139 -4.26196,-3.9131 0.858,-2.2378 -0.0391,-3.8852 -5.40181,-9.9194 -3.53676,-3.9798 -14.89013,-17.4093 -25.22955,-29.8432 -10.33942,-12.434 -23.91765,-28.6326 -30.17386,-35.9969 -6.25623,-7.3646 -15.87439,-18.8384 -21.37352,-25.4974 -13.35273,-16.1685 -37.72318,-42.6327 -67.36875,-73.1565 -39.57854,-40.7509 -46.35212,-47.9709 -47.01026,-50.1079 -0.85355,-2.772 1.66252,-7.0092 5.83532,-9.8275 1.90668,-1.2874 3.38619,-2.7114 3.28775,-3.164 -0.41857,-1.9246 -5.68234,0.9029 -8.48729,4.559 -4.19327,5.4654 -7.01693,6.4718 -10.85157,3.868 -5.00845,-3.4012 -6.08206,-10.604 -2.54194,-17.0567 2.08769,-3.8056 3.55345,-5.1926 5.6985,-5.392 2.60186,-0.2418 2.92413,0.1035 3.25408,3.4912 0.48064,4.9336 1.04532,3.7669 1.89119,-3.9074 0.37937,-3.4413 1.75585,-8.2254 3.05881,-10.6312 l 2.36954,-4.3737 3.73054,3.5427 c 7.34729,6.9775 11.33828,18.2119 10.59799,29.8328 -0.44725,7.0215 4.47785,16.2884 17.89801,33.6765 14.8376,19.2245 36.71799,45.249 37.79899,44.9579 0.99227,-0.267 0.49533,-0.9025 -11.42339,-14.658 -16.24734,-18.7489 -36.90841,-46.2908 -40.04343,-53.3794 -1.81794,-4.1102 -2.56698,-7.8736 -1.98264,-9.9602 0.51661,-1.8444 1.19817,-3.4041 1.51438,-3.4662 1.27709,-0.25 20.05896,21.9541 23.82667,28.1683 2.22222,3.6647 5.05059,10.8005 6.28525,15.8571 2.1922,8.978 2.5534,9.5504 15.3903,24.3903 7.22999,8.3578 20.20863,22.7957 28.84151,32.084 8.63297,9.2885 16.43739,17.8121 17.34321,18.9414 0.9058,1.1294 1.55452,1.5554 1.44153,0.9467 -0.29021,-1.5634 -14.58344,-18.518 -36.73992,-43.5812 -19.4365,-21.9864 -25.50576,-29.7916 -24.53761,-31.5561 1.0592,-1.9307 7.43725,3.7163 15.97989,14.1484 61.85762,75.5384 85.08928,102.482 101.17326,117.3388 11.9074,10.9988 38.18926,29.769 50.71468,36.22 l 7.46122,3.8429 -2.93747,1.5434 c -4.61317,2.424 -10.31369,0.5097 -18.9347,-6.3581 -4.18021,-3.33 -8.18266,-6.8405 -8.89439,-7.8009 -1.12882,-1.5233 -1.21514,-1.3295 -0.67525,1.5186 0.43889,2.3168 2.42881,4.6773 6.85385,8.1297 7.86874,6.1395 15.95375,8.3508 26.36549,7.2108 4.25051,-0.4654 8.90086,-0.4454 10.33404,0.045 3.99665,1.3661 9.22029,7.7232 8.38615,10.2057 -1.57863,4.6984 -19.64565,15.5318 -22.57974,13.5394 -0.40888,-0.2777 1.6442,-4.1985 4.5624,-8.7129 3.92245,-6.0679 4.88657,-8.2053 3.69729,-8.198 -0.8848,0 -2.49669,1.6224 -3.582,3.593 -1.08237,1.9728 -3.52356,5.1958 -5.41798,7.1672 -2.75458,2.8659 -3.53568,4.546 -3.89915,8.3851 -0.62058,6.5558 -1.81242,8.3174 -6.4761,9.5729 -3.26728,0.8795 -4.99915,0.3921 -9.52412,-2.6806 -3.74065,-2.5401 -5.73594,-4.7004 -6.16541,-6.6748 z"
         id="path36203" />
    </g>
    <text
       xml:space="preserve"
       style="font-style:normal;font-variant:normal;font-weight:normal;font-stretch:normal;font-size:11.0107px;line-height:1.25;font-family:Purisa;-inkscape-font-specification:'Purisa, Normal';font-variant-ligatures:normal;font-variant-caps:normal;font-variant-numeric:normal;font-variant-east-asian:normal;letter-spacing:0px;word-spacing:0px;fill:#ffffff;stroke-width:0.0573473"
       x="40.107906"
       y="176.36404"
       id="text45721"
       transform="scale(1.3059801,0.76570845)"><tspan
         sodipodi:role="line"
         id="tspan45719"
         style="font-style:normal;font-variant:normal;font-weight:normal;font-stretch:normal;font-size:11.0107px;font-family:Purisa;-inkscape-font-specification:'Purisa, Normal';font-variant-ligatures:normal;font-variant-caps:normal;font-variant-numeric:normal;font-variant-east-asian:normal;fill:#ffffff;stroke-width:0.0573473"
         x="40.107906"
         y="176.36404">Xmart Lake</tspan></text>
    <text
       xml:space="preserve"
       style="font-size:8.43099px;line-height:1.25;font-family:sans-serif;letter-spacing:0px;word-spacing:0px;stroke-width:0.0439114"
       x="-140.02394"
       y="38.728134"
       id="text58363"
       transform="rotate(-90)"><tspan
         sodipodi:role="line"
         id="tspan58361"
         style="stroke-width:0.0439114"
         x="-140.02394"
         y="38.728134">the war of the seas</tspan></text>
  </g>
</svg>
